<svg width="91" height="45" viewBox="0 0 91 45" fill="none" xmlns="http://www.w3.org/2000/svg">
<g clip-path="url(#clip0_2_4)">
<g filter="url(#filter0_d_2_4)">
<path fill-rule="evenodd" clip-rule="evenodd" d="M85.0657 27.0178L84.9485 27.0785L84.9148 27.1891C84.1071 29.5532 83.5801 30.7952 80.1214 31.4053L79.9747 31.4312L79.8996 31.5364C78.8142 32.9851 77.7951 34.5026 74.9653 34.5085C74.6325 34.5085 74.2722 34.4909 73.8794 34.4407L73.6851 34.4212L73.5643 34.5466C72.2505 35.8887 70.9929 36.8553 68.9444 36.8557C68.4329 36.8557 67.8654 36.7958 67.2305 36.6592L67.0262 36.613L66.8882 36.7437C65.5684 37.962 64.2354 38.3663 62.7548 38.3715C61.9529 38.3715 61.1101 38.2454 60.2214 38.0434L60.0156 37.9977L59.8747 38.1286C59.3941 38.5902 57.7774 39.4298 56.1961 39.4298H56.1604C55.588 39.4278 55.0236 39.3284 54.4911 39.0814C52.3168 38.0948 50.5091 36.5769 48.1877 36.5557H48.1776C47.3329 36.5557 46.4437 36.7748 45.5078 37.2838C44.5665 36.7739 43.677 36.5557 42.8316 36.5557C40.5082 36.5769 38.7023 38.0948 36.5286 39.0814C36.1243 39.2701 35.5885 39.3634 34.9985 39.3634H34.9679C33.5337 39.3634 31.829 38.7899 31.1436 38.1286L30.9989 37.9977L30.7929 38.0434C30.0883 38.2052 29.3506 38.2923 28.6212 38.2923C26.9322 38.2923 25.2971 37.8302 24.1306 36.7437L23.9897 36.613L23.7849 36.6592C23.1218 36.8015 22.539 36.8695 22.0115 36.8695C20.2087 36.8648 18.9812 36.1033 17.4535 34.5466L17.33 34.4212L17.1351 34.4407C16.7882 34.4814 16.4638 34.5026 16.1552 34.5026C13.9026 34.4978 12.5515 33.451 11.1175 31.5364L11.0414 31.4293L10.8934 31.4053C7.76616 30.8515 6.99489 29.8152 6.0985 27.1891L6.06716 27.0785L5.95041 27.0178H5.95568C5.77721 26.9278 5.60975 26.8341 5.44923 26.7375C4.11122 25.9327 3.38493 24.9387 3.38158 23.7256C3.38158 23.096 3.57559 22.399 4.01266 21.6389L4.07941 21.5173L4.01266 21.4015C3.58971 20.6533 3.40335 19.9742 3.40335 19.3593C3.40574 18.1193 4.15429 17.1049 5.44923 16.3208C5.60975 16.2227 5.77721 16.129 5.95568 16.0405H5.95041L6.06716 15.9834L6.0985 15.8772C6.53796 14.5263 6.93771 13.6069 7.5975 12.9779C8.25634 12.3473 9.20225 11.9397 10.8934 11.6561L11.0414 11.6294L11.1175 11.524C12.6017 9.54441 13.523 8.54713 15.8968 8.53618C16.2691 8.53618 16.6815 8.5614 17.1344 8.6159L17.33 8.6385L17.4535 8.51405C19.0128 6.91829 20.1362 6.17467 21.907 6.17277C22.4536 6.17277 23.0672 6.24368 23.7849 6.40002L23.9897 6.4438L24.1306 6.31245C25.61 4.94632 26.7848 4.54346 28.1195 4.53822C28.9293 4.53822 29.8137 4.69932 30.8374 4.933L31.0436 4.98178L31.1864 4.84923C31.5539 4.50134 32.0405 4.20865 32.5869 3.9971C33.2342 3.74177 33.9631 3.59828 34.6732 3.59828H34.677C35.3327 3.59828 35.9758 3.71964 36.5286 3.97616L36.5712 3.9971C38.7262 4.99035 40.5221 6.48568 42.828 6.50163H42.8376C43.6828 6.50163 44.5701 6.28342 45.5078 5.77585C46.4437 6.28342 47.3339 6.50163 48.1776 6.50163H48.1877C50.4936 6.48568 52.2948 4.99035 54.448 3.9971C54.4617 3.98854 54.4763 3.98282 54.4911 3.97616C55.0361 3.72559 55.6188 3.62017 56.2114 3.61851H56.2267C56.9186 3.61851 57.6178 3.77152 58.2307 3.9971C58.9393 4.25267 59.5345 4.60771 59.8747 4.93014L60.0142 5.06364L60.2214 5.01628C61.0565 4.82782 61.8701 4.71955 62.6433 4.71955C64.2141 4.7224 65.626 5.15097 66.8882 6.31245L67.0262 6.4438L67.2305 6.40002C67.9161 6.2532 68.5154 6.19014 69.0446 6.19014C71.3467 6.19014 72.4447 7.3697 73.5643 8.51405L73.6851 8.6385L73.8794 8.6159C74.2794 8.56759 74.6497 8.54713 74.988 8.54713C77.8889 8.55189 78.8479 10.1243 79.8996 11.524L79.9747 11.6277L80.1214 11.6561C83.5 12.2531 84.0813 13.4398 84.9148 15.8772L84.9485 15.9834L85.0657 16.0405C86.6666 16.8579 87.6142 17.9658 87.6176 19.3593C87.6176 19.9742 87.4286 20.6533 87.0073 21.4015L86.9396 21.5173L87.0073 21.6389C87.4422 22.399 87.6367 23.096 87.6367 23.7256C87.6338 25.0832 86.7255 26.1692 85.0657 27.0178Z" fill="#FEFEFE"/>
<path fill-rule="evenodd" clip-rule="evenodd" d="M85.0657 27.0178L84.9485 27.0785L84.9148 27.1891C84.1071 29.5533 83.5801 30.7952 80.1214 31.4053L79.9747 31.4312L79.8996 31.5364C78.8142 32.9851 77.7951 34.5026 74.9653 34.5085C74.6325 34.5085 74.2722 34.4909 73.8794 34.4407L73.6852 34.4212L73.5643 34.5466C72.2505 35.8887 70.9929 36.8553 68.9444 36.8558C68.4329 36.8558 67.8654 36.7958 67.2305 36.6592L67.0262 36.613L66.8882 36.7437C65.5684 37.962 64.2354 38.3663 62.7548 38.3716C61.9529 38.3716 61.1101 38.2455 60.2214 38.0434L60.0156 37.9977L59.8747 38.1286C59.3941 38.5903 57.7774 39.4298 56.1961 39.4298H56.1604C55.588 39.4279 55.0236 39.3284 54.4911 39.0814C52.3168 38.0948 50.5091 36.5769 48.1877 36.5557H48.1776C47.3329 36.5557 46.4437 36.7749 45.5078 37.2839C44.5665 36.7739 43.677 36.5557 42.8316 36.5557C40.5082 36.5769 38.7023 38.0948 36.5286 39.0814C36.1243 39.2701 35.5885 39.3634 34.9985 39.3634H34.9679C33.5337 39.3634 31.829 38.7899 31.1436 38.1286L30.9989 37.9977L30.7929 38.0434C30.0883 38.2052 29.3506 38.2923 28.6212 38.2923C26.9322 38.2923 25.2971 37.8302 24.1306 36.7437L23.9897 36.613L23.7849 36.6592C23.1218 36.8015 22.539 36.8696 22.0115 36.8696C20.2087 36.8648 18.9812 36.1033 17.4535 34.5466L17.33 34.4212L17.1351 34.4407C16.7882 34.4814 16.4638 34.5026 16.1552 34.5026C13.9026 34.4978 12.5515 33.451 11.1175 31.5364L11.0414 31.4293L10.8934 31.4053C7.76616 30.8516 6.99489 29.8153 6.0985 27.1891L6.06716 27.0785L5.95041 27.0178H5.95568C5.77721 26.9279 5.60975 26.8341 5.44923 26.7375C4.11122 25.9327 3.38493 24.9388 3.38158 23.7256C3.38158 23.096 3.57559 22.399 4.01266 21.639L4.07941 21.5174L4.01266 21.4015C3.58971 20.6533 3.40335 19.9742 3.40335 19.3593C3.40574 18.1193 4.15429 17.1049 5.44923 16.3208C5.60975 16.2228 5.77721 16.129 5.95568 16.0405H5.95041L6.06716 15.9834L6.0985 15.8773C6.53796 14.5264 6.93771 13.6069 7.5975 12.978C8.25634 12.3474 9.20225 11.9397 10.8934 11.6561L11.0414 11.6294L11.1175 11.524C12.6017 9.54444 13.523 8.54715 15.8968 8.53621C16.2691 8.53621 16.6815 8.56143 17.1344 8.61592L17.33 8.63853L17.4535 8.51408C19.0128 6.91832 20.1362 6.1747 21.907 6.17279C22.4536 6.17279 23.0672 6.2437 23.7849 6.40004L23.9897 6.44383L24.1306 6.31247C25.61 4.94635 26.7848 4.54348 28.1195 4.53825C28.9293 4.53825 29.8137 4.69935 30.8374 4.93302L31.0436 4.9818L31.1864 4.84926C31.5539 4.50136 32.0405 4.20867 32.5869 3.99713C33.2342 3.7418 33.9631 3.59831 34.6732 3.59831H34.677C35.3327 3.59831 35.9758 3.71967 36.5286 3.97619L36.5712 3.99713C38.7262 4.99037 40.5221 6.48571 42.828 6.50165H42.8376C43.6828 6.50165 44.5701 6.28344 45.5078 5.77588C46.4437 6.28344 47.3339 6.50165 48.1776 6.50165H48.1877C50.4936 6.48571 52.2948 4.99037 54.448 3.99713C54.4617 3.98856 54.4763 3.98285 54.4911 3.97619C55.0361 3.72562 55.6188 3.6202 56.2114 3.61853H56.2267C56.9186 3.61853 57.6178 3.77154 58.2307 3.99713C58.9393 4.2527 59.5345 4.60773 59.8747 4.93017L60.0142 5.06366L60.2214 5.01631C61.0565 4.82784 61.8701 4.71957 62.6433 4.71957C64.2141 4.72243 65.626 5.15099 66.8882 6.31247L67.0262 6.44383L67.2305 6.40004C67.9161 6.25322 68.5154 6.19016 69.0446 6.19016C71.3467 6.19016 72.4447 7.36973 73.5643 8.51408L73.6852 8.63853L73.8794 8.61592C74.2794 8.56762 74.6497 8.54715 74.988 8.54715C77.8889 8.55191 78.8479 10.1243 79.8996 11.524L79.9747 11.6278L80.1214 11.6561C83.5 12.2531 84.0813 13.4398 84.9148 15.8773L84.9485 15.9834L85.0657 16.0405C86.6667 16.8579 87.6142 17.9658 87.6176 19.3593C87.6176 19.9742 87.4286 20.6533 87.0073 21.4015L86.9396 21.5174L87.0073 21.639C87.4422 22.399 87.6367 23.096 87.6367 23.7256C87.6339 25.0832 86.7255 26.1692 85.0657 27.0178ZM45.5203 40.5472H45.5078C45.0033 40.5382 44.7933 40.1655 44.7772 39.7513C44.7772 39.6661 44.7911 39.584 44.811 39.5045C44.8619 39.3141 44.9849 39.0226 45.1332 38.8094C45.2143 38.675 45.2918 38.6024 45.3664 38.5341L45.515 38.4149L45.6655 38.5305C45.7502 38.6024 45.8105 38.6693 45.8949 38.807C46.0349 39.0203 46.1518 39.3091 46.2057 39.5045C46.2224 39.5718 46.2303 39.6399 46.2303 39.7082C46.2272 40.1253 45.9461 40.543 45.5203 40.5472ZM44.7772 3.63662C44.7576 3.55714 44.7437 3.47481 44.7437 3.39057C44.7595 2.97723 44.971 2.60316 45.4741 2.59507H45.4846C45.9152 2.59935 46.1966 3.0165 46.1975 3.43174C46.1975 3.50265 46.1908 3.57142 46.171 3.63662C46.1432 3.73894 46.0994 3.86625 46.0447 3.99713C45.993 4.11492 45.931 4.23437 45.8609 4.33408C45.764 4.47043 45.693 4.53206 45.6097 4.61202L45.4707 4.71957L45.3442 4.61915C45.265 4.55205 45.1832 4.46686 45.0976 4.33218C45.0296 4.23223 44.9629 4.11206 44.9081 3.99713C44.8514 3.8653 44.8043 3.73656 44.7772 3.63662ZM88.702 19.0509C88.6934 17.9763 88.0788 16.9516 87.164 16.1285C87.1209 16.0898 87.0769 16.0505 87.0315 16.0122C86.9707 15.9596 86.9088 15.9084 86.8451 15.8582C86.4851 15.5724 86.0891 15.3176 85.6731 15.1008C84.959 12.8452 84.0579 11.317 80.9441 10.6733C80.8529 10.6557 80.7601 10.6357 80.6649 10.6188C80.617 10.6103 80.5697 10.6017 80.5201 10.5927C80.5075 10.5784 80.4979 10.5624 80.4857 10.5463C80.4099 10.4425 80.3355 10.3361 80.256 10.2305C80.0338 9.92922 79.7938 9.61583 79.5144 9.31053L79.4721 9.26032L79.4321 9.22105C78.818 8.56714 78.0303 7.96962 76.8954 7.65956C76.6423 7.59174 76.3695 7.53535 76.0801 7.49704C75.7767 7.45682 75.4523 7.43588 75.1026 7.43588H75.0839C74.7657 7.43588 74.4275 7.45111 74.0689 7.48847C73.7385 7.14605 73.3777 6.78244 72.9617 6.44311C72.055 5.69354 70.8811 5.0689 69.1254 5.0689H69.1207C68.5771 5.0689 67.9827 5.1272 67.3279 5.25784C66.6705 4.67507 65.9494 4.26317 65.1894 3.99713C64.9971 3.92836 64.7999 3.87006 64.6028 3.81913C64.3203 3.74656 64.0332 3.69349 63.7438 3.65661C63.4052 3.61449 63.0646 3.59355 62.7203 3.59355H62.6971C61.9065 3.59355 61.0981 3.69587 60.2888 3.87006C59.4451 3.17284 57.8984 2.50179 56.2449 2.49275C55.5554 2.49275 54.8437 2.61672 54.1813 2.92464C53.4548 3.2654 52.7775 3.64138 52.1292 3.99713C50.763 4.7417 49.5274 5.38443 48.2331 5.38443H48.1958H48.1621C47.5757 5.38277 46.9616 5.26117 46.2815 4.95777C46.3832 4.85545 46.476 4.73885 46.5604 4.62629C46.6987 4.42308 46.8169 4.20582 46.9107 3.99713C46.9863 3.82794 47.0458 3.66375 47.0906 3.51788C47.1336 3.36392 47.1554 3.20734 47.1554 3.05386C47.1513 2.20125 46.5169 1.2782 45.4507 1.27249H45.415C44.8758 1.27535 44.4315 1.49713 44.1476 1.82527C43.8536 2.15937 43.7143 2.58603 43.7143 3.00127C43.7143 3.17545 43.7404 3.3475 43.788 3.51693C43.8342 3.66375 43.8952 3.82794 43.9732 3.99713C44.0708 4.2082 44.1928 4.42879 44.3378 4.63058C44.4277 4.74932 44.5258 4.86782 44.6334 4.97514C43.9689 5.26688 43.3653 5.38277 42.7928 5.38443H42.7852C41.4955 5.38443 40.2584 4.7417 38.8903 3.99713C38.2417 3.64138 37.564 3.2654 36.8377 2.92464C36.1621 2.60721 35.4019 2.47324 34.6416 2.47324C33.1974 2.47347 31.7419 2.96486 30.7713 3.78296C30.63 3.75322 30.4953 3.72657 30.3563 3.69825C29.5544 3.5312 28.8025 3.41365 28.0645 3.41365H28.0346C27.3465 3.41365 26.6767 3.5274 26.0093 3.78201C25.8461 3.84412 25.6813 3.91598 25.5162 3.99713C25.4138 4.04591 25.31 4.09945 25.2071 4.15609C24.9782 4.28435 24.7478 4.43212 24.5162 4.59607C24.2428 4.79049 23.9658 5.0037 23.6873 5.25784C23.3385 5.1874 23.006 5.13672 22.6912 5.10507C22.3928 5.06985 22.1084 5.05153 21.8333 5.05153H21.8211C19.8113 5.05153 18.4614 5.95006 16.948 7.48847C16.5403 7.44635 16.1576 7.42351 15.8014 7.42351H15.7672C15.0126 7.42351 14.3737 7.52726 13.8119 7.7181C13.6311 7.78116 13.4598 7.85112 13.294 7.93155C12.1759 8.4672 11.3699 9.40381 10.4946 10.5927C8.81661 10.8868 7.71975 11.3384 6.95111 12.077C6.79633 12.2258 6.65542 12.3857 6.52648 12.5582C6.47456 12.6253 6.42648 12.6926 6.37935 12.7621C6.26428 12.9325 6.15854 13.1122 6.0595 13.3025C5.832 13.7404 5.63966 14.2337 5.44923 14.7924C5.41454 14.8919 5.38009 14.9956 5.34469 15.1008C5.02436 15.2683 4.71384 15.4601 4.4239 15.6688C3.20431 16.5504 2.32658 17.7678 2.31911 19.0509C2.3127 20.042 2.88063 20.997 3.11388 21.5623C2.98398 21.8757 2.53853 22.4273 2.40481 23.4329C2.36916 23.6835 2.356 23.9629 2.36916 24.2739C2.37825 24.4614 2.40481 24.648 2.44476 24.8307C2.73662 26.1419 3.82798 27.2503 5.34253 28.0458C5.37746 28.1531 5.41311 28.2588 5.44923 28.3611C5.48224 28.4587 5.51597 28.5534 5.55018 28.6481C5.63966 28.8844 5.73008 29.1092 5.8296 29.3217C6.64131 31.086 7.87836 32.1087 10.5013 32.5551C11.1728 33.457 11.8842 34.2073 12.717 34.7513C12.877 34.8557 13.044 34.9523 13.2136 35.0432C13.6251 35.2564 14.0636 35.4209 14.5387 35.533C14.6495 35.5596 14.7629 35.5817 14.877 35.6017C15.2447 35.665 15.6308 35.6993 16.0432 35.6993H16.0612C16.3471 35.6993 16.6396 35.6841 16.947 35.6536C16.9841 35.6917 17.021 35.7281 17.0571 35.7635C17.1231 35.8294 17.1884 35.8927 17.2544 35.956C18.6472 37.2915 20.0326 38.0713 21.9204 38.0713H21.9359C22.4792 38.0713 23.0593 38.0108 23.6873 37.8847C23.8679 38.0415 24.0576 38.1872 24.2548 38.318C24.4193 38.427 24.5894 38.5277 24.7626 38.6233C25.9026 39.2347 27.2387 39.5007 28.5669 39.5007C29.2972 39.5007 30.0293 39.4193 30.7314 39.273C31.6838 40.0425 33.4026 40.5646 34.9679 40.5727C35.6404 40.5694 36.2913 40.4704 36.8377 40.22C39.0975 39.1628 40.8807 37.7555 42.7818 37.7555H42.8223C43.3969 37.7593 43.999 37.8752 44.6672 38.1679C44.559 38.2742 44.461 38.3913 44.3705 38.5129C44.1131 38.8725 43.9246 39.2865 43.8222 39.6254C43.7739 39.7948 43.7509 39.9652 43.7509 40.1403C43.7509 40.5551 43.8866 40.9827 44.1811 41.3166C44.4653 41.6438 44.9081 41.8667 45.4483 41.8715H45.4841C46.5504 41.8629 47.1853 40.9406 47.1891 40.0882C47.1891 39.934 47.1681 39.7791 47.125 39.6242C47.0236 39.2939 46.843 38.8815 46.5932 38.516C46.5088 38.4013 46.4179 38.2864 46.3148 38.1872C46.9949 37.8807 47.609 37.7593 48.1958 37.7555H48.2331C49.08 37.7555 49.9017 38.0358 50.7532 38.4349C51.3933 38.738 52.0498 39.1092 52.7447 39.4871C52.8256 39.5302 52.9103 39.5745 52.9926 39.6192C53.3753 39.8238 53.7703 40.0278 54.1813 40.22C54.8291 40.5189 55.5227 40.6381 56.1949 40.6381C56.5317 40.6362 56.8616 40.607 57.1839 40.5551C58.253 40.3838 59.202 39.978 59.8482 39.5766C59.9261 39.5283 60.0013 39.4795 60.0699 39.4326C60.1474 39.3781 60.2197 39.3265 60.285 39.2749C61.1419 39.4605 61.9835 39.5811 62.8098 39.5811H62.8321C64.4172 39.5811 65.954 39.1092 67.3286 37.8847C67.4496 37.9078 67.569 37.9278 67.6846 37.948C68.1578 38.0234 68.6023 38.0606 69.0223 38.0606H69.0274C69.1484 38.0606 69.2637 38.057 69.3788 38.0506C71.467 37.9459 72.8392 36.8996 74.0672 35.6536C74.4169 35.6917 74.7464 35.7081 75.0605 35.7081H75.0698C75.5361 35.7081 75.9638 35.6686 76.3537 35.5972C76.5059 35.5694 76.6518 35.5377 76.7934 35.5023V35.5004C77.7262 35.2574 78.4367 34.8212 79.0152 34.3103C79.6333 33.763 80.0977 33.1296 80.5201 32.5551C80.573 32.5451 80.6252 32.5359 80.6783 32.5259C80.8783 32.4885 81.0718 32.4483 81.2553 32.4045C81.3508 32.3805 81.4428 32.3574 81.5338 32.3336C81.9921 32.2101 82.3947 32.0637 82.751 31.8965C83.0435 31.7606 83.3052 31.6073 83.5418 31.4424C84.7105 30.62 85.2255 29.46 85.6731 28.0463C87.4018 27.1418 88.5766 25.8299 88.6484 24.2739C88.7219 22.7143 88.0678 21.9538 87.9056 21.5623C88.1396 20.997 88.7066 20.042 88.702 19.0509Z" fill="#600824"/>
<path fill-rule="evenodd" clip-rule="evenodd" d="M77.092 27.5689H76.8838V26.2332H76.3695V26.0543H77.608V26.2332H77.092V27.5689Z" fill="#600824"/>
<path fill-rule="evenodd" clip-rule="evenodd" d="M79.2551 27.5689H79.0522V26.6715C79.0522 26.6294 79.0623 26.4371 79.0623 26.2975H79.0522L78.6261 27.5689H78.424L77.9919 26.2984H77.9888C77.9888 26.4371 77.9919 26.6294 77.9919 26.6715V27.5689H77.7903V26.0543H78.086L78.5247 27.3354H78.5276L78.9637 26.0543H79.2551V27.5689Z" fill="#600824"/>
<path fill-rule="evenodd" clip-rule="evenodd" d="M18.8907 25.0727H16.5518L16.5594 21.3073H14.2219L14.2198 25.0675L11.8935 25.0627V15.5141H14.2219L14.2258 19.1083H16.5271V15.5213H18.8838L18.8907 25.0727Z" fill="#600824"/>
<path fill-rule="evenodd" clip-rule="evenodd" d="M22.009 25.209C21.6188 25.209 21.2291 25.13 20.8808 24.9827C19.7526 24.4547 19.2988 23.2692 19.2595 22.1077C19.1839 20.7147 19.7014 19.3766 20.9705 18.7308C21.2935 18.5911 21.6951 18.5031 22.0977 18.5031C22.6185 18.5031 23.1413 18.6499 23.4848 19.0145L23.5479 18.6152H25.6608V25.0487H23.6401L23.5877 24.6741C23.1499 25.041 22.5791 25.209 22.009 25.209ZM22.5367 20.5893C22.4248 20.5893 21.5767 20.6319 21.5767 21.8964C21.5767 21.8964 21.4461 23.185 22.581 23.185H22.5927C22.7032 23.185 23.5212 23.1424 23.5212 21.8795C23.5212 21.8795 23.6656 20.6224 22.5492 20.5893H22.5367Z" fill="#600824"/>
<path fill-rule="evenodd" clip-rule="evenodd" d="M24.4193 17.8692C23.742 17.8692 23.1932 17.3224 23.1932 16.6504C23.1932 15.9772 23.742 15.4314 24.4193 15.4314C25.0953 15.4314 25.6436 15.9772 25.6436 16.6504C25.6436 17.3224 25.0953 17.8692 24.4193 17.8692Z" fill="#600824"/>
<path fill-rule="evenodd" clip-rule="evenodd" d="M21.5053 17.8692C20.8266 17.8692 20.2793 17.3224 20.2793 16.6504C20.2793 15.9772 20.8266 15.4314 21.5053 15.4314C22.1799 15.4314 22.7287 15.9772 22.7287 16.6504C22.7287 17.3224 22.1799 17.8692 21.5053 17.8692Z" fill="#600824"/>
<path fill-rule="evenodd" clip-rule="evenodd" d="M35.8014 28.1037C35.0637 28.1037 34.3189 27.9612 33.6996 27.7517L33.695 25.885C34.1744 26.0715 34.783 26.2447 35.3658 26.2447C35.8352 26.2447 36.2911 26.1322 36.6505 25.8205C36.9208 25.5375 36.9739 25.0975 36.8969 24.7125C36.5088 25 35.9909 25.1459 35.4744 25.1459C35.1589 25.1459 34.8443 25.0909 34.563 24.9828C33.3319 24.4929 32.7608 23.1927 32.7608 21.9294C32.7773 20.651 33.1635 19.401 34.3163 18.7307C34.6787 18.5422 35.1464 18.4247 35.6093 18.4247C36.1244 18.4247 36.6356 18.571 36.9856 18.9246L37.0507 18.5237H39.1712L39.1633 25.0728C39.1384 26.0025 38.8253 26.8254 38.1004 27.4336C37.4835 27.9171 36.6495 28.1037 35.8014 28.1037ZM36.028 20.5094C35.9139 20.5094 35.0684 20.5535 35.0684 21.8158C35.0684 21.8158 34.9388 23.1042 36.0734 23.1042H36.0849C36.1914 23.1042 37.0136 23.0625 37.0136 21.8006C37.0136 21.8006 37.1562 20.5404 36.0404 20.5094H36.028Z" fill="#600824"/>
<path fill-rule="evenodd" clip-rule="evenodd" d="M65.7578 25.209C65.3664 25.209 64.9746 25.13 64.6282 24.9827C63.5017 24.4547 63.0474 23.2692 63.0088 22.1077C62.9311 20.7147 63.4485 19.3766 64.72 18.7308C65.0408 18.5911 65.4442 18.5031 65.8454 18.5031C66.3688 18.5031 66.8898 18.6499 67.2343 19.0145L67.2977 18.6152H69.4092V25.0487H67.3891L67.3374 24.6741C66.8987 25.041 66.3284 25.209 65.7578 25.209ZM66.2848 20.5893C66.1724 20.5893 65.3279 20.6319 65.3279 21.8964C65.3279 21.8964 65.1971 23.185 66.3284 23.185H66.3408C66.4513 23.185 67.2683 23.1424 67.2683 21.8795C67.2683 21.8795 67.4147 20.6224 66.2975 20.5893H66.2848Z" fill="#600824"/>
<path fill-rule="evenodd" clip-rule="evenodd" d="M74.5901 25.0536H69.6005L71.7397 20.4617H69.7625V18.6161H74.9863L72.8083 23.3127H74.5901V25.0536Z" fill="#600824"/>
<path fill-rule="evenodd" clip-rule="evenodd" d="M76.8231 25.2521C76.6494 25.2521 76.4673 25.2402 76.2743 25.2152C76.2743 25.2152 74.9619 25.0056 74.8648 24.8766V23.0874C74.8648 23.0874 75.7391 23.5391 76.4846 23.5567H76.4992C76.619 23.5567 77.3951 23.541 77.425 23.185C77.425 23.185 77.5042 22.8625 76.5982 22.7002C76.5982 22.7002 75.3688 22.5803 74.7927 21.5488C74.7927 21.5488 74.2664 20.2362 75.2217 19.2522C75.2217 19.2522 75.92 18.5222 77.0367 18.5222C77.092 18.5222 77.1492 18.5236 77.2061 18.5279H77.2269C77.386 18.5279 78.4336 18.541 79.2709 18.882V20.5405C79.2709 20.5405 78.6544 20.2362 77.8692 20.2362C77.7731 20.2362 77.6711 20.2414 77.57 20.2521H77.5599C77.4759 20.2521 76.874 20.2659 76.874 20.6559C76.874 20.6559 76.8083 20.8801 77.5214 20.9441C77.5214 20.9441 78.6403 20.9605 79.3036 21.6206C79.3036 21.6206 79.8223 22.1537 79.7579 22.9434C79.7579 22.9434 79.8055 24.1351 78.7049 24.7645C78.7049 24.7645 77.9821 25.2521 76.8231 25.2521Z" fill="#600824"/>
<mask id="mask0_2_4" style="mask-type:luminance" maskUnits="userSpaceOnUse" x="2" y="1" width="87" height="41">
<path d="M2.3194 41.8714H88.7022V1.27245H2.3194V41.8714Z" fill="white"/>
</mask>
<g mask="url(#mask0_2_4)">
<path fill-rule="evenodd" clip-rule="evenodd" d="M52.4788 22.3142H54.6859V20.2185H52.4788V22.3142Z" fill="#600824"/>
</g>
<mask id="mask1_2_4" style="mask-type:luminance" maskUnits="userSpaceOnUse" x="2" y="1" width="87" height="41">
<path d="M2.3194 41.8714H88.7022V1.27245H2.3194V41.8714Z" fill="white"/>
</mask>
<g mask="url(#mask1_2_4)">
<path fill-rule="evenodd" clip-rule="evenodd" d="M51.7195 25.0865H49.6463V21.1547C49.6463 21.1547 49.5794 20.4951 48.931 20.4616C48.8944 20.4601 48.8574 20.4582 48.822 20.4582C48.2921 20.4582 48.1459 20.6845 48.1076 21.1547V25.0794H45.9732V18.6414H47.8981L47.9787 19.0433C47.9787 19.0433 48.6098 18.5127 49.2739 18.4791C49.2739 18.4791 49.4133 18.4568 49.6193 18.4568C49.9116 18.4568 50.3396 18.5022 50.6832 18.7209C50.6832 18.7209 51.5905 19.1083 51.7195 20.3973V25.0865Z" fill="#600824"/>
</g>
<mask id="mask2_2_4" style="mask-type:luminance" maskUnits="userSpaceOnUse" x="2" y="1" width="87" height="41">
<path d="M2.3194 41.8714H88.7022V1.27245H2.3194V41.8714Z" fill="white"/>
</mask>
<g mask="url(#mask2_2_4)">
<path fill-rule="evenodd" clip-rule="evenodd" d="M28.7639 25.209C28.3726 25.209 27.9824 25.13 27.6343 24.9827C26.5085 24.4547 26.0554 23.2692 26.0145 22.1077C25.9372 20.7147 26.4549 19.3766 27.7252 18.7308C28.0465 18.5911 28.4491 18.5031 28.852 18.5031C29.3735 18.5031 29.8948 18.6499 30.2376 19.0145L30.3046 18.6152H32.4167V25.0487H30.3943L30.3424 24.6741C29.9036 25.041 29.3342 25.209 28.7639 25.209ZM29.2902 20.5893C29.1785 20.5893 28.3302 20.6319 28.3302 21.8964C28.3302 21.8964 28.2017 23.185 29.3342 23.185H29.3467C29.4591 23.185 30.2742 23.1424 30.2742 21.8795C30.2742 21.8795 30.4199 20.6224 29.3029 20.5893H29.2902Z" fill="#600824"/>
</g>
<mask id="mask3_2_4" style="mask-type:luminance" maskUnits="userSpaceOnUse" x="2" y="1" width="87" height="41">
<path d="M2.3194 41.8714H88.7022V1.27245H2.3194V41.8714Z" fill="white"/>
</mask>
<g mask="url(#mask3_2_4)">
<path fill-rule="evenodd" clip-rule="evenodd" d="M58.3275 25.0698H55.5084V15.5141H58.521C58.5483 15.5141 58.5751 15.5136 58.6016 15.5136C59.9858 15.5136 60.9669 16.1261 60.9669 16.1261C62.9281 17.2057 62.8956 20.1867 62.8956 20.1867C62.8474 23.5716 60.952 24.4104 60.952 24.4104C60.1267 24.9899 58.3275 25.0698 58.3275 25.0698ZM57.9727 17.6574V22.9579H58.621C58.621 22.9579 59.2999 22.9434 59.7207 22.4608C59.7207 22.4608 60.4166 21.8652 60.4166 20.2999C60.4166 20.2521 60.409 18.5438 59.5913 18.0291C59.5913 18.0291 59.2124 17.6574 58.6035 17.6574H57.9727Z" fill="#600824"/>
</g>
<mask id="mask4_2_4" style="mask-type:luminance" maskUnits="userSpaceOnUse" x="2" y="1" width="87" height="41">
<path d="M2.3194 41.8714H88.7022V1.27245H2.3194V41.8714Z" fill="white"/>
</mask>
<g mask="url(#mask4_2_4)">
<path fill-rule="evenodd" clip-rule="evenodd" d="M43.0435 25.1114C42.1287 25.1114 41.2182 24.8492 40.5624 24.2752C39.5534 23.3719 39.3866 22.0655 39.5548 20.7587C39.7964 19.6669 40.7311 18.628 41.832 18.396C42.0926 18.3419 42.3533 18.3146 42.6074 18.3146C43.6994 18.3146 44.7018 18.8102 45.226 19.8159C45.5487 20.3865 45.6169 21.0111 45.669 21.671L42.21 22.9065C42.4971 23.2491 42.9301 23.3696 43.3904 23.3696C43.7985 23.3696 44.2255 23.2753 44.5887 23.1578L45.1621 22.8979L45.1635 24.6096C44.5449 24.9339 43.7913 25.1114 43.0435 25.1114ZM42.5346 20.1005C42.0366 20.1005 41.6301 20.5157 41.6301 21.0347C41.6301 21.1323 41.6454 21.2322 41.6744 21.3221L43.3918 20.7318C43.2719 20.3648 42.9334 20.1005 42.5346 20.1005Z" fill="#600824"/>
</g>
</g>
</g>
<defs>
<filter id="filter0_d_2_4" x="-1.68095" y="-0.727509" width="94.383" height="48.599" filterUnits="userSpaceOnUse" color-interpolation-filters="sRGB">
<feFlood flood-opacity="0" result="BackgroundImageFix"/>
<feColorMatrix in="SourceAlpha" type="matrix" values="0 0 0 0 0 0 0 0 0 0 0 0 0 0 0 0 0 0 127 0" result="hardAlpha"/>
<feOffset dy="2"/>
<feGaussianBlur stdDeviation="2"/>
<feColorMatrix type="matrix" values="0 0 0 0 0 0 0 0 0 0 0 0 0 0 0 0 0 0 0.5 0"/>
<feBlend mode="normal" in2="BackgroundImageFix" result="effect1_dropShadow_2_4"/>
<feBlend mode="normal" in="SourceGraphic" in2="effect1_dropShadow_2_4" result="shape"/>
</filter>
<clipPath id="clip0_2_4">
<rect width="91" height="45" fill="white"/>
</clipPath>
</defs>
</svg>
